<svg xmlns="http://www.w3.org/2000/svg" xmlns:xlink="http://www.w3.org/1999/xlink" width="500" zoomAndPan="magnify" viewBox="0 0 375 374.999991" height="500" preserveAspectRatio="xMidYMid meet" version="1.0"><defs><g/></defs><rect x="-37.5" width="450" fill="#ffffff" y="-37.499999" height="449.999989" fill-opacity="1"/><rect x="-37.5" width="450" fill="#000000" y="-37.499999" height="449.999989" fill-opacity="1"/><g fill="#fffbfa" fill-opacity="1"><g transform="translate(151.768925, 209.999986)"><g><path d="M 27.011719 1.199219 C 35.769531 1.199219 42.832031 -2.050781 46.992188 -7.734375 C 47.285156 -8.085938 47.402344 -8.523438 47.402344 -9.050781 L 47.402344 -23.875 C 47.402344 -24.667969 46.992188 -25.078125 46.199219 -25.078125 L 28.5625 -25.078125 C 27.773438 -25.078125 27.363281 -24.667969 27.363281 -23.875 L 27.363281 -16.667969 C 27.363281 -15.90625 27.773438 -15.46875 28.5625 -15.46875 L 36.472656 -15.46875 L 36.472656 -13.007812 C 34.304688 -10.488281 31.023438 -8.992188 27.011719 -8.992188 C 19.570312 -8.992188 14.648438 -14.148438 14.648438 -22.5 C 14.648438 -30.46875 19.570312 -35.390625 27.011719 -35.390625 C 31.257812 -35.390625 34.6875 -33.777344 36.914062 -31.082031 C 37.382812 -30.46875 37.910156 -30.351562 38.523438 -30.789062 L 46.433594 -36.0625 C 47.109375 -36.53125 47.226562 -37.089844 46.726562 -37.675781 C 42.421875 -43.007812 35.507812 -46.199219 27.011719 -46.199219 C 12.363281 -46.199219 2.636719 -36.972656 2.636719 -22.5 C 2.636719 -8.027344 12.363281 1.199219 27.011719 1.199219 Z M 27.011719 1.199219 "/></g></g></g><g fill="#ff3131" fill-opacity="1"><g transform="translate(198.525871, 219.548599)"><g><path d="M 20.652344 0 C 21.414062 0 21.824219 -0.410156 21.824219 -1.199219 L 21.824219 -43.796875 C 21.824219 -44.589844 21.414062 -45 20.652344 -45 L 3.542969 -45 C 2.753906 -45 2.34375 -44.589844 2.34375 -43.796875 L 2.34375 -36.121094 C 2.34375 -35.332031 2.753906 -34.921875 3.542969 -34.921875 L 11.042969 -34.921875 L 11.042969 -1.199219 C 11.042969 -0.410156 11.453125 0 12.246094 0 Z M 20.652344 0 "/></g></g></g></svg>